<mxfile host="app.diagrams.net" modified="2023-05-01T19:45:39.725Z" agent="Mozilla/5.0 (Windows NT 10.0; Win64; x64) AppleWebKit/537.36 (KHTML, like Gecko) Chrome/112.0.0.0 Safari/537.36" etag="RmX6jo5HHM1Mg6KWfitJ" version="21.1.4" type="device">
  <diagram name="Page-1" id="Hzk1nXjLQBGkUmvB_u3M">
    <mxGraphModel dx="10385" dy="3881" grid="1" gridSize="10" guides="1" tooltips="1" connect="1" arrows="1" fold="1" page="1" pageScale="1" pageWidth="850" pageHeight="1100" math="0" shadow="0">
      <root>
        <mxCell id="0" />
        <mxCell id="1" parent="0" />
        <mxCell id="ytxD9LGKjR-1jV4EOtm5-1" value="eatables" style="html=1;overflow=block;blockSpacing=1;whiteSpace=wrap;ellipse;fontSize=16.7;fontFamily=Poppins;fontColor=#3a414a;spacing=3.8;strokeColor=#000000;strokeOpacity=100;rounded=1;absoluteArcSize=1;arcSize=9;strokeWidth=3.8;lucidId=Fwvz_EmDbjRy;fontStyle=0;fontSource=https%3A%2F%2Ffonts.googleapis.com%2Fcss%3Ffamily%3DPoppins;" vertex="1" parent="1">
          <mxGeometry x="-9020" y="-3068.5" width="140" height="138" as="geometry" />
        </mxCell>
        <mxCell id="ytxD9LGKjR-1jV4EOtm5-4" style="edgeStyle=orthogonalEdgeStyle;rounded=0;orthogonalLoop=1;jettySize=auto;html=1;entryX=0.026;entryY=0.349;entryDx=0;entryDy=0;entryPerimeter=0;exitX=1.005;exitY=0.153;exitDx=0;exitDy=0;exitPerimeter=0;strokeWidth=3.8;endArrow=block;endFill=1;fontFamily=Poppins;fontSource=https%3A%2F%2Ffonts.googleapis.com%2Fcss%3Ffamily%3DPoppins;" edge="1" parent="1" source="ytxD9LGKjR-1jV4EOtm5-2" target="ytxD9LGKjR-1jV4EOtm5-1">
          <mxGeometry relative="1" as="geometry">
            <mxPoint x="-9060" y="-3020" as="sourcePoint" />
            <mxPoint x="-9000" y="-3020" as="targetPoint" />
            <Array as="points" />
          </mxGeometry>
        </mxCell>
        <mxCell id="ytxD9LGKjR-1jV4EOtm5-2" value="user" style="html=1;overflow=block;blockSpacing=1;whiteSpace=wrap;fontSize=16.7;fontFamily=Poppins;fontColor=#3a414a;spacing=9;strokeColor=#000000;strokeOpacity=100;rounded=1;absoluteArcSize=1;arcSize=9;strokeWidth=3.8;lucidId=wwvzzOB5qDHe;fontStyle=0;fontSource=https%3A%2F%2Ffonts.googleapis.com%2Fcss%3Ffamily%3DPoppins;" vertex="1" parent="1">
          <mxGeometry x="-9320" y="-3029.5" width="125" height="60" as="geometry" />
        </mxCell>
        <mxCell id="ytxD9LGKjR-1jV4EOtm5-3" value="admin" style="html=1;overflow=block;blockSpacing=1;whiteSpace=wrap;fontSize=16.7;fontFamily=Poppins;fontColor=#3a414a;spacing=9;strokeColor=#000000;strokeOpacity=100;rounded=1;absoluteArcSize=1;arcSize=9;strokeWidth=3.8;lucidId=wwvzzOB5qDHe;fontStyle=0;fontSource=https%3A%2F%2Ffonts.googleapis.com%2Fcss%3Ffamily%3DPoppins;" vertex="1" parent="1">
          <mxGeometry x="-8700" y="-3029.5" width="125" height="60" as="geometry" />
        </mxCell>
        <mxCell id="ytxD9LGKjR-1jV4EOtm5-5" value="" style="html=1;jettySize=18;whiteSpace=wrap;fontSize=13;strokeColor=#000000;strokeOpacity=100;strokeWidth=3.8;rounded=1;arcSize=12;edgeStyle=orthogonalEdgeStyle;startArrow=none;endArrow=block;endFill=1;entryX=1.016;entryY=0.807;entryPerimeter=0;lucidId=7BvzuQQROveY;fontFamily=Poppins;fontStyle=0;entryDx=0;entryDy=0;exitX=0.009;exitY=0.634;exitDx=0;exitDy=0;exitPerimeter=0;fontSource=https%3A%2F%2Ffonts.googleapis.com%2Fcss%3Ffamily%3DPoppins;" edge="1" parent="1" source="ytxD9LGKjR-1jV4EOtm5-1" target="ytxD9LGKjR-1jV4EOtm5-2">
          <mxGeometry width="100" height="100" relative="1" as="geometry">
            <Array as="points" />
            <mxPoint x="-9030" y="-2940" as="sourcePoint" />
            <mxPoint x="-9001" y="-2999" as="targetPoint" />
          </mxGeometry>
        </mxCell>
        <mxCell id="ytxD9LGKjR-1jV4EOtm5-7" value="" style="html=1;jettySize=18;whiteSpace=wrap;fontSize=13;strokeColor=#000000;strokeOpacity=100;strokeWidth=3.8;rounded=1;arcSize=12;edgeStyle=orthogonalEdgeStyle;startArrow=none;endArrow=block;endFill=1;lucidId=7BvzuQQROveY;fontFamily=Poppins;fontStyle=0;exitX=-0.003;exitY=0.81;exitDx=0;exitDy=0;entryX=0.986;entryY=0.632;entryDx=0;entryDy=0;entryPerimeter=0;exitPerimeter=0;fontSource=https%3A%2F%2Ffonts.googleapis.com%2Fcss%3Ffamily%3DPoppins;" edge="1" parent="1" source="ytxD9LGKjR-1jV4EOtm5-3" target="ytxD9LGKjR-1jV4EOtm5-1">
          <mxGeometry width="100" height="100" relative="1" as="geometry">
            <Array as="points" />
            <mxPoint x="-8900" y="-2990" as="sourcePoint" />
            <mxPoint x="-8900" y="-2990" as="targetPoint" />
          </mxGeometry>
        </mxCell>
        <mxCell id="ytxD9LGKjR-1jV4EOtm5-8" value="" style="html=1;jettySize=18;whiteSpace=wrap;fontSize=13;strokeColor=#000000;strokeOpacity=100;strokeWidth=3.8;rounded=1;arcSize=12;edgeStyle=orthogonalEdgeStyle;startArrow=none;endArrow=block;endFill=1;lucidId=7BvzuQQROveY;fontFamily=Poppins;fontStyle=0;exitX=0.979;exitY=0.352;exitDx=0;exitDy=0;entryX=-0.005;entryY=0.166;entryDx=0;entryDy=0;entryPerimeter=0;exitPerimeter=0;fontSource=https%3A%2F%2Ffonts.googleapis.com%2Fcss%3Ffamily%3DPoppins;" edge="1" parent="1" source="ytxD9LGKjR-1jV4EOtm5-1" target="ytxD9LGKjR-1jV4EOtm5-3">
          <mxGeometry width="100" height="100" relative="1" as="geometry">
            <Array as="points" />
            <mxPoint x="-8750" y="-2974" as="sourcePoint" />
            <mxPoint x="-8872" y="-2975" as="targetPoint" />
          </mxGeometry>
        </mxCell>
        <mxCell id="ytxD9LGKjR-1jV4EOtm5-10" value="user details, review, vlog,&lt;br&gt;suggestion, location" style="text;html=1;align=center;verticalAlign=middle;resizable=0;points=[];autosize=1;fontFamily=Poppins;fontSource=https%3A%2F%2Ffonts.googleapis.com%2Fcss%3Ffamily%3DPoppins;fontSize=14;" vertex="1" parent="1">
          <mxGeometry x="-9210" y="-3078.5" width="200" height="50" as="geometry" />
        </mxCell>
        <mxCell id="ytxD9LGKjR-1jV4EOtm5-11" value="vlog, suggestion" style="text;html=1;align=center;verticalAlign=middle;resizable=0;points=[];autosize=1;fontFamily=Poppins;fontSource=https%3A%2F%2Ffonts.googleapis.com%2Fcss%3Ffamily%3DPoppins;fontSize=15;" vertex="1" parent="1">
          <mxGeometry x="-8870" y="-3058.5" width="150" height="30" as="geometry" />
        </mxCell>
        <mxCell id="ytxD9LGKjR-1jV4EOtm5-12" value="vlog, restaurant data, &#xa;item data, review" style="text;align=center;verticalAlign=middle;resizable=0;points=[];autosize=1;strokeColor=none;fillColor=none;fontFamily=Poppins;fontSource=https%3A%2F%2Ffonts.googleapis.com%2Fcss%3Ffamily%3DPoppins;fontSize=14;" vertex="1" parent="1">
          <mxGeometry x="-9190" y="-2980.5" width="180" height="50" as="geometry" />
        </mxCell>
        <mxCell id="ytxD9LGKjR-1jV4EOtm5-13" value="vlog, restaurant data, &#xa;item data" style="text;align=center;verticalAlign=middle;resizable=0;points=[];autosize=1;strokeColor=none;fillColor=none;fontFamily=Poppins;fontSource=https%3A%2F%2Ffonts.googleapis.com%2Fcss%3Ffamily%3DPoppins;fontSize=14;" vertex="1" parent="1">
          <mxGeometry x="-8880" y="-2980.5" width="180" height="50" as="geometry" />
        </mxCell>
      </root>
    </mxGraphModel>
  </diagram>
</mxfile>
